<svg xmlns="http://www.w3.org/2000/svg" version="1.1" xmlns:xlink="http://www.w3.org/1999/xlink" xmlns:svgjs="http://svgjs.dev/svgjs" width="1000" height="1000"><g clip-path="url(#SvgjsClipPath1100)"><rect width="1000" height="1000" fill="#000000"></rect><g transform="matrix(1.4,0,0,1.4,150,150)"><svg xmlns="http://www.w3.org/2000/svg" version="1.1" xmlns:xlink="http://www.w3.org/1999/xlink" xmlns:svgjs="http://svgjs.dev/svgjs" width="500" height="500"><svg xmlns="http://www.w3.org/2000/svg" xmlns:xlink="http://www.w3.org/1999/xlink" width="500" zoomAndPan="magnify" viewBox="0 0 375 374.999991" height="500" preserveAspectRatio="xMidYMid meet" version="1.0"><defs><g></g><clipPath id="fae7057875"><path d="M 54.75 0 L 320.25 0 C 350.488281 0 375 24.511719 375 54.75 L 375 320.25 C 375 350.488281 350.488281 375 320.25 375 L 54.75 375 C 24.511719 375 0 350.488281 0 320.25 L 0 54.75 C 0 24.511719 24.511719 0 54.75 0 Z M 54.75 0 " clip-rule="nonzero"></path></clipPath><clipPath id="SvgjsClipPath1100"><rect width="1000" height="1000" x="0" y="0" rx="200" ry="200"></rect></clipPath></defs><g clip-path="url(#fae7057875)"><rect x="-37.5" width="450" fill="#000000" y="-37.499999" height="449.999989" fill-opacity="1"></rect></g><g fill="#ffffff" fill-opacity="1"><g transform="translate(28.218753, 332.624978)"><g><path d="M 300.9375 -145.625 C 300.9375 -113.207031 294.628906 -85.878906 282.015625 -63.640625 C 269.410156 -41.410156 252.390625 -24.582031 230.953125 -13.15625 C 209.523438 -1.726562 185.632812 3.984375 159.28125 3.984375 C 132.738281 3.984375 108.773438 -1.773438 87.390625 -13.296875 C 66.015625 -24.816406 49.046875 -41.691406 36.484375 -63.921875 C 23.921875 -86.160156 17.640625 -113.394531 17.640625 -145.625 C 17.640625 -178.050781 23.921875 -205.378906 36.484375 -227.609375 C 49.046875 -249.847656 66.015625 -266.679688 87.390625 -278.109375 C 108.773438 -289.535156 132.738281 -295.25 159.28125 -295.25 C 185.632812 -295.25 209.523438 -289.535156 230.953125 -278.109375 C 252.390625 -266.679688 269.410156 -249.847656 282.015625 -227.609375 C 294.628906 -205.378906 300.9375 -178.050781 300.9375 -145.625 Z M 219.578125 -145.625 C 219.578125 -163.070312 217.273438 -177.789062 212.671875 -189.78125 C 208.078125 -201.78125 201.300781 -210.882812 192.34375 -217.09375 C 183.382812 -223.300781 172.363281 -226.40625 159.28125 -226.40625 C 146.195312 -226.40625 135.175781 -223.300781 126.21875 -217.09375 C 117.257812 -210.882812 110.476562 -201.78125 105.875 -189.78125 C 101.28125 -177.789062 98.984375 -163.070312 98.984375 -145.625 C 98.984375 -128.1875 101.28125 -113.46875 105.875 -101.46875 C 110.476562 -89.476562 117.257812 -80.375 126.21875 -74.15625 C 135.175781 -67.945312 146.195312 -64.84375 159.28125 -64.84375 C 172.363281 -64.84375 183.382812 -67.945312 192.34375 -74.15625 C 201.300781 -80.375 208.078125 -89.476562 212.671875 -101.46875 C 217.273438 -113.46875 219.578125 -128.1875 219.578125 -145.625 Z M 219.578125 -145.625 "></path></g></g></g></svg></svg></g></g></svg>