<svg xmlns="http://www.w3.org/2000/svg" xmlns:xlink="http://www.w3.org/1999/xlink" width="500" zoomAndPan="magnify" viewBox="0 0 375 374.999991" height="500" preserveAspectRatio="xMidYMid meet" version="1.0"><defs><g/><clipPath id="9f16b834d0"><path d="M 10.679688 110.097656 L 129.179688 110.097656 L 129.179688 228.597656 L 10.679688 228.597656 Z M 10.679688 110.097656 " clip-rule="nonzero"/></clipPath><clipPath id="19ea8027ee"><path d="M 27.980469 110.097656 L 111.878906 110.097656 C 121.433594 110.097656 129.179688 117.84375 129.179688 127.398438 L 129.179688 211.296875 C 129.179688 220.851562 121.433594 228.597656 111.878906 228.597656 L 27.980469 228.597656 C 18.425781 228.597656 10.679688 220.851562 10.679688 211.296875 L 10.679688 127.398438 C 10.679688 117.84375 18.425781 110.097656 27.980469 110.097656 Z M 27.980469 110.097656 " clip-rule="nonzero"/></clipPath></defs><rect x="-37.5" width="450" fill="#ffffff" y="-37.499999" height="449.999989" fill-opacity="1"/><rect x="-37.5" width="450" fill="#ffffff" y="-37.499999" height="449.999989" fill-opacity="1"/><g clip-path="url(#9f16b834d0)"><g clip-path="url(#19ea8027ee)"><path fill="#000000" d="M -1.171875 98.25 L 141.027344 98.25 L 141.027344 240.449219 L -1.171875 240.449219 Z M -1.171875 98.25 " fill-opacity="1" fill-rule="nonzero"/></g></g><path fill="#ffffff" d="M 114.691406 169.191406 C 114.691406 179.433594 112.699219 188.070312 108.710938 195.097656 C 104.730469 202.121094 99.351562 207.441406 92.578125 211.050781 C 85.804688 214.664062 78.257812 216.46875 69.929688 216.46875 C 61.542969 216.46875 53.96875 214.648438 47.210938 211.007812 C 40.457031 207.367188 35.09375 202.035156 31.125 195.007812 C 27.15625 187.980469 25.171875 179.375 25.171875 169.191406 C 25.171875 158.945312 27.15625 150.308594 31.125 143.285156 C 35.09375 136.257812 40.457031 130.9375 47.210938 127.324219 C 53.96875 123.714844 61.542969 121.910156 69.929688 121.910156 C 78.257812 121.910156 85.804688 123.714844 92.578125 127.324219 C 99.351562 130.9375 104.730469 136.257812 108.710938 143.285156 C 112.699219 150.308594 114.691406 158.945312 114.691406 169.191406 Z M 88.984375 169.191406 C 88.984375 163.679688 88.253906 159.027344 86.800781 155.238281 C 85.347656 151.445312 83.207031 148.570312 80.375 146.605469 C 77.542969 144.644531 74.0625 143.664062 69.929688 143.664062 C 65.792969 143.664062 62.3125 144.644531 59.480469 146.605469 C 56.648438 148.570312 54.507812 151.445312 53.050781 155.238281 C 51.601562 159.027344 50.875 163.679688 50.875 169.191406 C 50.875 174.703125 51.601562 179.351562 53.050781 183.144531 C 54.507812 186.933594 56.648438 189.808594 59.480469 191.773438 C 62.3125 193.738281 65.792969 194.71875 69.929688 194.71875 C 74.0625 194.71875 77.542969 193.738281 80.375 191.773438 C 83.207031 189.808594 85.347656 186.933594 86.800781 183.144531 C 88.253906 179.351562 88.984375 174.703125 88.984375 169.191406 Z M 88.984375 169.191406 " fill-opacity="1" fill-rule="nonzero"/><g fill="#000000" fill-opacity="1"><g transform="translate(135.096338, 151.265987)"><g><path d="M 42.515625 -21.125 C 42.515625 -16.519531 41.640625 -12.597656 39.890625 -9.359375 C 38.148438 -6.128906 35.785156 -3.664062 32.796875 -1.96875 C 29.816406 -0.269531 26.457031 0.578125 22.71875 0.578125 C 18.96875 0.578125 15.597656 -0.273438 12.609375 -1.984375 C 9.617188 -3.691406 7.257812 -6.164062 5.53125 -9.40625 C 3.800781 -12.644531 2.9375 -16.550781 2.9375 -21.125 C 2.9375 -25.738281 3.800781 -29.660156 5.53125 -32.890625 C 7.257812 -36.117188 9.617188 -38.582031 12.609375 -40.28125 C 15.597656 -41.988281 18.96875 -42.84375 22.71875 -42.84375 C 26.457031 -42.84375 29.816406 -41.988281 32.796875 -40.28125 C 35.785156 -38.582031 38.148438 -36.117188 39.890625 -32.890625 C 41.640625 -29.660156 42.515625 -25.738281 42.515625 -21.125 Z M 33.453125 -21.125 C 33.453125 -25.613281 32.472656 -29.035156 30.515625 -31.390625 C 28.566406 -33.753906 25.96875 -34.9375 22.71875 -34.9375 C 19.46875 -34.9375 16.863281 -33.753906 14.90625 -31.390625 C 12.957031 -29.035156 11.984375 -25.613281 11.984375 -21.125 C 11.984375 -16.65625 12.957031 -13.238281 14.90625 -10.875 C 16.863281 -8.507812 19.46875 -7.328125 22.71875 -7.328125 C 25.96875 -7.328125 28.566406 -8.507812 30.515625 -10.875 C 32.472656 -13.238281 33.453125 -16.65625 33.453125 -21.125 Z M 33.453125 -21.125 "/></g></g></g><g fill="#000000" fill-opacity="1"><g transform="translate(180.530952, 151.265987)"><g><path d="M 3.671875 0 L 3.671875 -42.265625 L 20.34375 -42.265625 C 25.144531 -42.265625 28.867188 -41.007812 31.515625 -38.5 C 34.171875 -36 35.5 -32.648438 35.5 -28.453125 C 35.5 -25.566406 34.851562 -23.097656 33.5625 -21.046875 C 32.28125 -18.992188 30.429688 -17.453125 28.015625 -16.421875 L 37 0 L 27.140625 0 L 19.125 -14.984375 L 12.609375 -14.984375 L 12.609375 0 Z M 12.609375 -22.15625 L 18.671875 -22.15625 C 23.753906 -22.15625 26.296875 -24.253906 26.296875 -28.453125 C 26.296875 -32.785156 23.742188 -34.953125 18.640625 -34.953125 L 12.609375 -34.953125 Z M 12.609375 -22.15625 "/></g></g></g><g fill="#000000" fill-opacity="1"><g transform="translate(218.661365, 151.265987)"><g><path d="M 3.671875 0 L 3.671875 -42.265625 L 20.34375 -42.265625 C 25.144531 -42.265625 28.867188 -41.007812 31.515625 -38.5 C 34.171875 -36 35.5 -32.648438 35.5 -28.453125 C 35.5 -25.566406 34.851562 -23.097656 33.5625 -21.046875 C 32.28125 -18.992188 30.429688 -17.453125 28.015625 -16.421875 L 37 0 L 27.140625 0 L 19.125 -14.984375 L 12.609375 -14.984375 L 12.609375 0 Z M 12.609375 -22.15625 L 18.671875 -22.15625 C 23.753906 -22.15625 26.296875 -24.253906 26.296875 -28.453125 C 26.296875 -32.785156 23.742188 -34.953125 18.640625 -34.953125 L 12.609375 -34.953125 Z M 12.609375 -22.15625 "/></g></g></g><g fill="#000000" fill-opacity="1"><g transform="translate(256.791779, 151.265987)"><g><path d="M 12.609375 -42.265625 L 12.609375 0 L 3.671875 0 L 3.671875 -42.265625 Z M 12.609375 -42.265625 "/></g></g></g><g fill="#000000" fill-opacity="1"><g transform="translate(273.092119, 151.265987)"><g><path d="M 26.59375 -30.109375 C 26.425781 -31.773438 25.710938 -33.066406 24.453125 -33.984375 C 23.203125 -34.910156 21.507812 -35.375 19.375 -35.375 C 17.1875 -35.375 15.507812 -34.925781 14.34375 -34.03125 C 13.175781 -33.132812 12.59375 -32.003906 12.59375 -30.640625 C 12.5625 -29.128906 13.207031 -27.984375 14.53125 -27.203125 C 15.863281 -26.429688 17.441406 -25.832031 19.265625 -25.40625 L 23.078125 -24.5 C 25.523438 -23.945312 27.695312 -23.144531 29.59375 -22.09375 C 31.5 -21.050781 33 -19.707031 34.09375 -18.0625 C 35.1875 -16.414062 35.734375 -14.421875 35.734375 -12.078125 C 35.722656 -8.203125 34.273438 -5.117188 31.390625 -2.828125 C 28.515625 -0.546875 24.492188 0.59375 19.328125 0.59375 C 14.203125 0.59375 10.109375 -0.570312 7.046875 -2.90625 C 3.992188 -5.25 2.414062 -8.703125 2.3125 -13.265625 L 10.953125 -13.265625 C 11.109375 -11.148438 11.945312 -9.554688 13.46875 -8.484375 C 14.988281 -7.421875 16.910156 -6.890625 19.234375 -6.890625 C 21.503906 -6.890625 23.316406 -7.367188 24.671875 -8.328125 C 26.023438 -9.296875 26.707031 -10.550781 26.71875 -12.09375 C 26.707031 -13.519531 26.082031 -14.617188 24.84375 -15.390625 C 23.601562 -16.160156 21.835938 -16.820312 19.546875 -17.375 L 14.9375 -18.53125 C 11.375 -19.382812 8.5625 -20.738281 6.5 -22.59375 C 4.4375 -24.445312 3.410156 -26.929688 3.421875 -30.046875 C 3.410156 -32.609375 4.09375 -34.847656 5.46875 -36.765625 C 6.851562 -38.679688 8.753906 -40.171875 11.171875 -41.234375 C 13.597656 -42.304688 16.351562 -42.84375 19.4375 -42.84375 C 22.570312 -42.84375 25.3125 -42.304688 27.65625 -41.234375 C 30.007812 -40.160156 31.835938 -38.664062 33.140625 -36.75 C 34.441406 -34.84375 35.113281 -32.628906 35.15625 -30.109375 Z M 26.59375 -30.109375 "/></g></g></g><g fill="#000000" fill-opacity="1"><g transform="translate(311.140006, 151.265987)"><g><path d="M 26.59375 -30.109375 C 26.425781 -31.773438 25.710938 -33.066406 24.453125 -33.984375 C 23.203125 -34.910156 21.507812 -35.375 19.375 -35.375 C 17.1875 -35.375 15.507812 -34.925781 14.34375 -34.03125 C 13.175781 -33.132812 12.59375 -32.003906 12.59375 -30.640625 C 12.5625 -29.128906 13.207031 -27.984375 14.53125 -27.203125 C 15.863281 -26.429688 17.441406 -25.832031 19.265625 -25.40625 L 23.078125 -24.5 C 25.523438 -23.945312 27.695312 -23.144531 29.59375 -22.09375 C 31.5 -21.050781 33 -19.707031 34.09375 -18.0625 C 35.1875 -16.414062 35.734375 -14.421875 35.734375 -12.078125 C 35.722656 -8.203125 34.273438 -5.117188 31.390625 -2.828125 C 28.515625 -0.546875 24.492188 0.59375 19.328125 0.59375 C 14.203125 0.59375 10.109375 -0.570312 7.046875 -2.90625 C 3.992188 -5.25 2.414062 -8.703125 2.3125 -13.265625 L 10.953125 -13.265625 C 11.109375 -11.148438 11.945312 -9.554688 13.46875 -8.484375 C 14.988281 -7.421875 16.910156 -6.890625 19.234375 -6.890625 C 21.503906 -6.890625 23.316406 -7.367188 24.671875 -8.328125 C 26.023438 -9.296875 26.707031 -10.550781 26.71875 -12.09375 C 26.707031 -13.519531 26.082031 -14.617188 24.84375 -15.390625 C 23.601562 -16.160156 21.835938 -16.820312 19.546875 -17.375 L 14.9375 -18.53125 C 11.375 -19.382812 8.5625 -20.738281 6.5 -22.59375 C 4.4375 -24.445312 3.410156 -26.929688 3.421875 -30.046875 C 3.410156 -32.609375 4.09375 -34.847656 5.46875 -36.765625 C 6.851562 -38.679688 8.753906 -40.171875 11.171875 -41.234375 C 13.597656 -42.304688 16.351562 -42.84375 19.4375 -42.84375 C 22.570312 -42.84375 25.3125 -42.304688 27.65625 -41.234375 C 30.007812 -40.160156 31.835938 -38.664062 33.140625 -36.75 C 34.441406 -34.84375 35.113281 -32.628906 35.15625 -30.109375 Z M 26.59375 -30.109375 "/></g></g></g><g fill="#000000" fill-opacity="1"><g transform="translate(132.270332, 226.393693)"><g><path d="M 5.28125 0 L 5.28125 -60.75 L 18.125 -60.75 L 18.125 -10.59375 L 44.171875 -10.59375 L 44.171875 0 Z M 5.28125 0 "/></g></g></g><g fill="#000000" fill-opacity="1"><g transform="translate(179.668099, 226.393693)"><g><path d="M 15.75 0 L 1.984375 0 L 22.953125 -60.75 L 39.515625 -60.75 L 60.453125 0 L 46.6875 0 L 42.1875 -13.859375 L 20.265625 -13.859375 Z M 23.515625 -23.875 L 38.953125 -23.875 L 31.46875 -46.875 L 31 -46.875 Z M 23.515625 -23.875 "/></g></g></g><g fill="#000000" fill-opacity="1"><g transform="translate(242.133476, 226.393693)"><g><path d="M 5.28125 0 L 5.28125 -60.75 L 29.609375 -60.75 C 36.304688 -60.75 41.34375 -59.289062 44.71875 -56.375 C 48.09375 -53.457031 49.78125 -49.722656 49.78125 -45.171875 C 49.78125 -41.597656 48.738281 -38.707031 46.65625 -36.5 C 44.582031 -34.289062 41.960938 -32.832031 38.796875 -32.125 L 38.796875 -31.53125 C 41.109375 -31.4375 43.273438 -30.785156 45.296875 -29.578125 C 47.328125 -28.367188 48.972656 -26.6875 50.234375 -24.53125 C 51.503906 -22.375 52.140625 -19.796875 52.140625 -16.796875 C 52.140625 -13.566406 51.34375 -10.6875 49.75 -8.15625 C 48.164062 -5.625 45.820312 -3.628906 42.71875 -2.171875 C 39.613281 -0.722656 35.785156 0 31.234375 0 Z M 18.125 -10.5 L 28.59375 -10.5 C 32.195312 -10.5 34.8125 -11.191406 36.4375 -12.578125 C 38.070312 -13.960938 38.890625 -15.789062 38.890625 -18.0625 C 38.890625 -20.570312 37.992188 -22.628906 36.203125 -24.234375 C 34.410156 -25.835938 31.972656 -26.640625 28.890625 -26.640625 L 18.125 -26.640625 Z M 18.125 -35.328125 L 27.640625 -35.328125 C 30.273438 -35.328125 32.460938 -36.015625 34.203125 -37.390625 C 35.941406 -38.765625 36.8125 -40.648438 36.8125 -43.046875 C 36.8125 -45.234375 36.035156 -47 34.484375 -48.34375 C 32.929688 -49.695312 30.734375 -50.375 27.890625 -50.375 L 18.125 -50.375 Z M 18.125 -35.328125 "/></g></g></g><g fill="#000000" fill-opacity="1"><g transform="translate(297.331987, 226.393693)"><g><path d="M 38.234375 -43.28125 C 37.992188 -45.675781 36.96875 -47.535156 35.15625 -48.859375 C 33.351562 -50.179688 30.921875 -50.84375 27.859375 -50.84375 C 24.710938 -50.84375 22.296875 -50.195312 20.609375 -48.90625 C 18.929688 -47.625 18.09375 -46.003906 18.09375 -44.046875 C 18.050781 -41.867188 18.984375 -40.222656 20.890625 -39.109375 C 22.804688 -37.992188 25.078125 -37.128906 27.703125 -36.515625 L 33.15625 -35.203125 C 36.675781 -34.421875 39.804688 -33.273438 42.546875 -31.765625 C 45.285156 -30.265625 47.441406 -28.332031 49.015625 -25.96875 C 50.585938 -23.601562 51.375 -20.734375 51.375 -17.359375 C 51.351562 -11.796875 49.269531 -7.367188 45.125 -4.078125 C 40.988281 -0.785156 35.210938 0.859375 27.796875 0.859375 C 20.421875 0.859375 14.535156 -0.816406 10.140625 -4.171875 C 5.753906 -7.535156 3.484375 -12.503906 3.328125 -19.078125 L 15.75 -19.078125 C 15.96875 -16.023438 17.171875 -13.734375 19.359375 -12.203125 C 21.546875 -10.671875 24.304688 -9.90625 27.640625 -9.90625 C 30.910156 -9.90625 33.519531 -10.597656 35.46875 -11.984375 C 37.414062 -13.367188 38.394531 -15.164062 38.40625 -17.375 C 38.394531 -19.4375 37.5 -21.019531 35.71875 -22.125 C 33.9375 -23.238281 31.394531 -24.1875 28.09375 -24.96875 L 21.46875 -26.640625 C 16.351562 -27.867188 12.3125 -29.816406 9.34375 -32.484375 C 6.375 -35.148438 4.898438 -38.71875 4.921875 -43.1875 C 4.898438 -46.863281 5.882812 -50.082031 7.875 -52.84375 C 9.863281 -55.601562 12.597656 -57.75 16.078125 -59.28125 C 19.554688 -60.8125 23.507812 -61.578125 27.9375 -61.578125 C 32.445312 -61.578125 36.390625 -60.804688 39.765625 -59.265625 C 43.140625 -57.722656 45.765625 -55.578125 47.640625 -52.828125 C 49.515625 -50.078125 50.484375 -46.894531 50.546875 -43.28125 Z M 38.234375 -43.28125 "/></g></g></g></svg>